<svg width="729" height="460" viewBox="0 0 729 460" fill="none" xmlns="http://www.w3.org/2000/svg">
<circle opacity="0.05" cx="614" cy="366" r="614" fill="white"/>
<circle cx="614" cy="366" r="383" fill="#174AFF"/>
<circle opacity="0.05" cx="646" cy="432" r="173" fill="#C2F3FF"/>
<circle opacity="0.2" cx="592" cy="366" r="268" fill="#C2F3FF"/>
<rect x="403.903" y="180.654" width="356.829" height="356.829" rx="178.415" fill="#E2F8FF"/>
<path d="M591.508 348.967H574.26C546.664 348.967 524.242 371.389 524.242 398.986V434.344H641.527V398.986C641.527 371.389 619.105 348.967 591.508 348.967Z" fill="#81E5FF"/>
<path d="M582.884 333.444C600.03 333.444 613.93 319.544 613.93 302.398C613.93 285.251 600.03 271.352 582.884 271.352C565.737 271.352 551.837 285.251 551.837 302.398C551.837 319.544 565.737 333.444 582.884 333.444Z" fill="#174AFF"/>
<path d="M498.406 381.789H677.709L669.913 487.812H506.202L498.406 381.789Z" fill="#174AFF"/>
<path d="M583.381 449.613C591.561 449.613 598.193 442.981 598.193 434.801C598.193 426.62 591.561 419.989 583.381 419.989C575.2 419.989 568.569 426.62 568.569 434.801C568.569 442.981 575.2 449.613 583.381 449.613Z" fill="#81E5FF"/>
<path d="M314 152.914C314 130.87 331.87 113 353.914 113H402.105C424.15 113 442.02 130.87 442.02 152.914V189.623C442.02 194.042 438.438 197.623 434.02 197.623H353.914C331.87 197.623 314 179.753 314 157.709V152.914Z" fill="#6089FF"/>
<path d="M396.65 172.606L392.483 168.439L405.448 155.474L392.483 142.046L396.65 137.879L413.782 155.474L396.65 172.606Z" fill="#90D0B5"/>
<path d="M360.069 172.606L342.474 155.474L360.069 137.879L364.236 142.046L350.809 155.474L364.236 168.439L360.069 172.606Z" fill="#90D0B5"/>
<path opacity="0.5" d="M374.84 137.464L369.21 139.595L381.995 173.374L387.625 171.243L374.84 137.464Z" fill="#90D0B5"/>
<path d="M552 85.2859C552 65.2458 568.246 49 588.286 49H595.82C615.86 49 632.106 65.2458 632.106 85.286V92.8197C632.106 112.86 615.86 129.106 595.82 129.106H564.095C557.415 129.106 552 123.69 552 117.01V85.2859Z" fill="#6089FF"/>
<path d="M572.634 103.009V92.1575C572.634 91.4931 572.332 91.1509 571.688 91.1509H567.661V86.943H571.688C572.332 86.943 572.634 86.6007 572.634 85.9363V75.0844C572.605 74.6045 572.678 74.1238 572.847 73.6737C573.017 73.2236 573.279 72.8143 573.617 72.4724C573.955 72.1305 574.362 71.8636 574.81 71.6893C575.258 71.5149 575.738 71.437 576.218 71.4604H582.258V75.3059H577.849C577.225 75.3059 576.902 75.6482 576.902 76.3528V85.9363C576.922 86.3021 576.866 86.668 576.737 87.0111C576.608 87.3541 576.41 87.6668 576.155 87.9296C575.9 88.1924 575.593 88.3996 575.254 88.5382C574.915 88.6767 574.551 88.7437 574.184 88.7348H573.621V89.359H574.184C574.551 89.3501 574.915 89.4171 575.254 89.5557C575.593 89.6942 575.9 89.9014 576.155 90.1642C576.41 90.427 576.608 90.7398 576.737 91.0828C576.866 91.4258 576.922 91.7917 576.902 92.1575V101.66C576.902 102.365 577.225 102.707 577.849 102.707H582.157V106.492H576.117C575.658 106.501 575.201 106.416 574.775 106.244C574.348 106.072 573.961 105.816 573.636 105.491C573.311 105.165 573.055 104.778 572.883 104.352C572.711 103.926 572.626 103.469 572.634 103.009Z" fill="#41C0E1"/>
<path opacity="0.5" d="M595.426 71.4606H599.835L588.399 106.573H583.99L595.426 71.4606Z" fill="#41C0E1" fill-opacity="0.5"/>
<path d="M601.949 102.788H606.258C606.882 102.788 607.204 102.446 607.204 101.741V92.1574C607.184 91.7916 607.241 91.4257 607.369 91.0826C607.498 90.7396 607.696 90.4269 607.951 90.1641C608.207 89.9013 608.513 89.6941 608.852 89.5555C609.192 89.417 609.556 89.35 609.922 89.3588H610.486V88.7347H609.922C609.556 88.7436 609.192 88.6766 608.852 88.538C608.513 88.3994 608.207 88.1923 607.951 87.9295C607.696 87.6667 607.498 87.3539 607.369 87.0109C607.241 86.6679 607.184 86.302 607.204 85.9362V76.3527C607.204 75.648 606.882 75.3058 606.258 75.3058H601.949V71.4603H607.989C608.461 71.4512 608.93 71.5397 609.366 71.7205C609.802 71.9012 610.196 72.1702 610.523 72.5106C610.85 72.851 611.103 73.2553 611.267 73.6982C611.43 74.1412 611.5 74.6131 611.472 75.0843V85.9362C611.472 86.6006 611.774 86.9428 612.418 86.9428H616.445V91.1507H612.418C611.774 91.1507 611.472 91.493 611.472 92.1574V103.009C611.492 103.483 611.414 103.955 611.242 104.396C611.069 104.838 610.808 105.238 610.473 105.573C610.138 105.908 609.737 106.17 609.296 106.342C608.854 106.514 608.382 106.593 607.909 106.573H601.869L601.949 102.788Z" fill="#41C0E1"/>
</svg>
