<svg width="56" height="56" viewBox="0 0 56 56" fill="none" xmlns="http://www.w3.org/2000/svg">
<g clip-path="url(#clip0_1_162)">
<rect width="56" height="56" rx="28" fill="#DCF3FE"/>
<path d="M31.6365 28.3892L33.2433 26.7824L31.6365 25.0149L32.4399 24.2115L34.8501 26.7824L32.4399 29.1926L31.6365 28.3892Z" fill="#174AFF"/>
<path d="M32.4405 24.5328L34.69 26.7823L32.4405 29.0319L31.7978 28.3891L33.4046 26.7823L31.7978 25.1755L32.4405 24.5328ZM32.4405 24.0508L32.2798 24.2115L31.6371 24.8542L31.4764 25.0149L31.6371 25.1755L33.0832 26.6217L31.6371 28.0678L31.4764 28.2285L31.6371 28.3891L32.2798 29.0319L32.4405 29.1925L32.6012 29.0319L34.8507 26.7823L35.0114 26.6217L34.8507 26.461L32.6012 24.2115L32.4405 24.0508Z" fill="#174AFF"/>
<path d="M22.9587 26.7824L25.3689 24.2115L26.1723 25.0149L24.5655 26.7824L26.1723 28.3892L25.3689 29.1926L22.9587 26.7824Z" fill="#174AFF"/>
<path d="M25.3694 24.5327L26.0121 25.1754L24.4053 26.7822L26.0121 28.389L25.3694 29.0317L23.1199 26.7822L25.3694 24.5327ZM25.3694 24.0507L25.2087 24.2113L22.9592 26.4609L22.7985 26.6215L22.9592 26.7822L25.2087 29.0317L25.3694 29.1924L25.5301 29.0317L26.1728 28.389L26.3335 28.2283H26.1728L24.7267 26.7822L26.1728 25.3361L26.3335 25.1754L26.1728 24.8541L25.5301 24.2113L25.3694 24.0507Z" fill="#174AFF"/>
<path d="M28.1847 23.4472L27.1325 23.8447L29.4606 30.0077L30.5128 29.6102L28.1847 23.4472Z" fill="#174AFF"/>
<path d="M28.2608 23.7294L30.5103 29.5138L29.7069 29.8352L27.4574 24.0507L28.2608 23.7294ZM28.4214 23.2473L28.1001 23.408L27.2967 23.7294L26.9753 23.89L27.136 24.2114L29.3855 29.9959L29.5462 30.3172L29.8676 30.1566L30.671 29.8352L30.9923 29.6745L30.8316 29.3532L28.5821 23.5687L28.4214 23.2473Z" fill="#174AFF"/>
<path d="M37.7418 20.355V25.1754C37.7418 30.1564 33.7248 34.1734 28.7437 34.1734C23.7626 34.1734 19.7456 30.1564 19.7456 25.336V20.5156H37.7418M40.9554 17.1414H37.7418H19.7456H16.532V20.355V25.1754C16.532 31.9239 21.9951 37.387 28.7437 37.387C35.4923 37.387 40.9554 31.9239 40.9554 25.1754V20.355V17.1414Z" fill="#174AFF"/>
<path d="M28.7432 35.6196C28.7432 35.6196 30.8321 42.2075 19.7451 42.2075" stroke="#174AFF" stroke-width="4.36389" stroke-miterlimit="10"/>
<path d="M24.2441 20.3551V13.6066" stroke="#174AFF" stroke-width="4.36389" stroke-miterlimit="10"/>
<path d="M33.0819 20.3551V13.6066" stroke="#174AFF" stroke-width="4.36389" stroke-miterlimit="10"/>
</g>
<defs>
<clipPath id="clip0_1_162">
<rect width="56" height="56" rx="28" fill="white"/>
</clipPath>
</defs>
</svg>
