<svg width="26" height="26" viewBox="0 0 26 26" fill="none" xmlns="http://www.w3.org/2000/svg">
<path d="M22.7812 12.95C22.7812 18.1173 18.5923 22.3062 13.425 22.3062M22.7812 12.95C22.7812 7.78269 18.5923 3.59375 13.425 3.59375M22.7812 12.95H4.06874M13.425 22.3062C8.25768 22.3062 4.06874 18.1173 4.06874 12.95M13.425 22.3062C15.1474 22.3062 16.5437 18.1173 16.5437 12.95C16.5437 7.78269 15.1474 3.59375 13.425 3.59375M13.425 22.3062C11.7026 22.3062 10.3062 18.1173 10.3062 12.95C10.3062 7.78269 11.7026 3.59375 13.425 3.59375M4.06874 12.95C4.06874 7.78269 8.25768 3.59375 13.425 3.59375" stroke="#0077FE" stroke-width="2.07917" stroke-linecap="round" stroke-linejoin="round"/>
</svg>
