<svg width="29" height="32" viewBox="0 0 29 32" fill="none" xmlns="http://www.w3.org/2000/svg">
<g filter="url(#filter0_d_1_326)">
<path d="M23.7812 12.95C23.7812 18.1173 19.5923 22.3062 14.425 22.3062M23.7812 12.95C23.7812 7.78269 19.5923 3.59375 14.425 3.59375M23.7812 12.95H5.06874M14.425 22.3062C9.25768 22.3062 5.06874 18.1173 5.06874 12.95M14.425 22.3062C16.1474 22.3062 17.5437 18.1173 17.5437 12.95C17.5437 7.78269 16.1474 3.59375 14.425 3.59375M14.425 22.3062C12.7026 22.3062 11.3062 18.1173 11.3062 12.95C11.3062 7.78269 12.7026 3.59375 14.425 3.59375M5.06874 12.95C5.06874 7.78269 9.25768 3.59375 14.425 3.59375" stroke="white" stroke-width="2.07917" stroke-linecap="round" stroke-linejoin="round"/>
</g>
<defs>
<filter id="filter0_d_1_326" x="-2.05" y="0.474976" width="32.95" height="32.95" filterUnits="userSpaceOnUse" color-interpolation-filters="sRGB">
<feFlood flood-opacity="0" result="BackgroundImageFix"/>
<feColorMatrix in="SourceAlpha" type="matrix" values="0 0 0 0 0 0 0 0 0 0 0 0 0 0 0 0 0 0 127 0" result="hardAlpha"/>
<feOffset dy="4"/>
<feGaussianBlur stdDeviation="2"/>
<feComposite in2="hardAlpha" operator="out"/>
<feColorMatrix type="matrix" values="0 0 0 0 0 0 0 0 0 0 0 0 0 0 0 0 0 0 0.25 0"/>
<feBlend mode="normal" in2="BackgroundImageFix" result="effect1_dropShadow_1_326"/>
<feBlend mode="normal" in="SourceGraphic" in2="effect1_dropShadow_1_326" result="shape"/>
</filter>
</defs>
</svg>
