<svg width="347" height="376" viewBox="0 0 347 376" fill="none" xmlns="http://www.w3.org/2000/svg">
<circle opacity="0.05" cx="279" cy="303" r="303" fill="white"/>
<circle cx="279" cy="303" r="196" fill="#174AFF"/>
<circle opacity="0.05" cx="295.378" cy="336.775" r="88.5326" fill="#C2F3FF"/>
<circle opacity="0.2" cx="267.742" cy="303" r="137.149" fill="#C2F3FF"/>
<rect x="171.486" y="208.149" width="182.607" height="182.607" rx="91.3036" fill="#E2F8FF"/>
<path d="M187.613 381.666H340.313L334.134 352.98H194.233L187.613 381.666Z" fill="#81E5FF"/>
<path d="M267.495 294.283H258.669C244.546 294.283 233.072 305.758 233.072 319.88V337.975H293.092V319.88C293.092 305.758 281.618 294.283 267.495 294.283Z" fill="#81E5FF"/>
<path d="M263.08 286.339C271.855 286.339 278.968 279.226 278.968 270.451C278.968 261.677 271.855 254.564 263.08 254.564C254.306 254.564 247.193 261.677 247.193 270.451C247.193 279.226 254.306 286.339 263.08 286.339Z" fill="#174AFF"/>
<path d="M219.849 311.08H311.607L307.618 365.337H223.839L219.849 311.08Z" fill="#174AFF"/>
<path d="M263.334 345.789C267.52 345.789 270.914 342.395 270.914 338.209C270.914 334.022 267.52 330.629 263.334 330.629C259.147 330.629 255.754 334.022 255.754 338.209C255.754 342.395 259.147 345.789 263.334 345.789Z" fill="#81E5FF"/>
<path d="M125.475 193.954C125.475 182.672 134.62 173.527 145.901 173.527H170.563C181.844 173.527 190.989 182.672 190.989 193.954V212.739C190.989 215 189.156 216.833 186.895 216.833H145.901C134.62 216.833 125.475 207.688 125.475 196.407V193.954Z" fill="#6089FF"/>
<path d="M167.771 204.031L165.639 201.898L172.274 195.263L165.639 188.392L167.771 186.259L176.539 195.263L167.771 204.031Z" fill="#90D0B5"/>
<path d="M149.052 204.031L140.048 195.263L149.052 186.259L151.185 188.392L144.313 195.263L151.185 201.898L149.052 204.031Z" fill="#90D0B5"/>
<path opacity="0.5" d="M156.61 186.047L153.729 187.137L160.271 204.424L163.153 203.333L156.61 186.047Z" fill="#90D0B5"/>
<path d="M247.272 159.345C247.272 149.089 255.585 140.776 265.841 140.776H269.696C279.952 140.776 288.266 149.089 288.266 159.345V163.2C288.266 173.456 279.952 181.77 269.696 181.77H253.461C250.043 181.77 247.272 178.998 247.272 175.58V159.345Z" fill="#6089FF"/>
<path d="M257.831 168.415V162.861C257.831 162.521 257.677 162.346 257.347 162.346H255.286V160.193H257.347C257.677 160.193 257.831 160.018 257.831 159.678V154.124C257.817 153.879 257.854 153.633 257.94 153.402C258.027 153.172 258.161 152.963 258.334 152.788C258.507 152.613 258.715 152.476 258.945 152.387C259.174 152.298 259.419 152.258 259.665 152.27H262.756V154.238H260.5C260.18 154.238 260.016 154.413 260.016 154.773V159.678C260.026 159.865 259.997 160.052 259.931 160.228C259.865 160.403 259.764 160.563 259.633 160.698C259.502 160.832 259.345 160.938 259.172 161.009C258.998 161.08 258.812 161.114 258.625 161.11H258.336V161.429H258.625C258.812 161.425 258.998 161.459 259.172 161.53C259.345 161.601 259.502 161.707 259.633 161.841C259.764 161.976 259.865 162.136 259.931 162.311C259.997 162.487 260.026 162.674 260.016 162.861V167.725C260.016 168.085 260.18 168.26 260.5 168.26H262.705V170.197H259.614C259.379 170.201 259.145 170.158 258.927 170.07C258.709 169.982 258.51 169.851 258.344 169.685C258.178 169.518 258.047 169.32 257.958 169.102C257.87 168.884 257.827 168.65 257.831 168.415Z" fill="#41C0E1"/>
<path opacity="0.5" d="M269.493 152.27H271.749L265.897 170.239H263.641L269.493 152.27Z" fill="#41C0E1" fill-opacity="0.5"/>
<path d="M272.833 168.301H275.037C275.357 168.301 275.522 168.126 275.522 167.766V162.861C275.512 162.674 275.541 162.487 275.606 162.311C275.672 162.136 275.774 161.976 275.904 161.841C276.035 161.707 276.192 161.601 276.365 161.53C276.539 161.459 276.725 161.425 276.913 161.429H277.201V161.11H276.913C276.725 161.114 276.539 161.08 276.365 161.009C276.192 160.938 276.035 160.832 275.904 160.698C275.774 160.563 275.672 160.403 275.606 160.228C275.541 160.052 275.512 159.865 275.522 159.678V154.773C275.522 154.413 275.357 154.238 275.037 154.238H272.833V152.27H275.924C276.165 152.265 276.405 152.31 276.628 152.403C276.851 152.495 277.053 152.633 277.22 152.807C277.388 152.981 277.517 153.188 277.601 153.415C277.684 153.642 277.72 153.883 277.706 154.124V159.678C277.706 160.018 277.861 160.193 278.19 160.193H280.251V162.346H278.19C277.861 162.346 277.706 162.521 277.706 162.861V168.415C277.716 168.657 277.676 168.899 277.588 169.125C277.5 169.35 277.366 169.556 277.195 169.727C277.023 169.898 276.818 170.032 276.592 170.12C276.366 170.208 276.125 170.249 275.882 170.238H272.791L272.833 168.301Z" fill="#41C0E1"/>
</svg>
