<svg width="56" height="56" viewBox="0 0 56 56" fill="none" xmlns="http://www.w3.org/2000/svg">
<g clip-path="url(#clip0_1_121)">
<rect width="56" height="56" rx="28" fill="#DCF3FE"/>
<path d="M37.1813 15.5867V40.4139H18.818V20.7284L23.6659 15.5867H37.1813ZM40.1194 12.6486H37.1813H23.6659H22.3437L21.4623 13.53L16.6144 18.6717L15.8798 19.5532V20.7284V40.4139V43.352H18.818H37.1813H40.1194V40.4139V15.5867V12.6486Z" fill="#174AFF"/>
<path d="M24.4002 26.8983C22.7842 26.8983 21.7559 25.7231 21.7559 23.8133C21.7559 21.9035 22.7842 20.7283 24.4002 20.7283C26.0162 20.7283 27.0445 21.9035 27.0445 23.8133C27.0445 25.7231 26.0162 26.8983 24.4002 26.8983ZM24.4002 22.3442C23.8126 22.3442 23.6656 23.0788 23.6656 23.8133C23.6656 24.5478 23.8126 25.2824 24.4002 25.2824C24.9878 25.2824 25.1347 24.5478 25.1347 23.8133C25.1347 23.0788 24.8409 22.3442 24.4002 22.3442Z" fill="#174AFF"/>
<path d="M24.4008 20.8753C25.8699 20.8753 26.8982 21.9036 26.8982 23.8134C26.8982 25.7232 25.8699 26.7516 24.4008 26.7516C22.9317 26.7516 21.9034 25.7232 21.9034 23.8134C21.9034 21.9036 22.9317 20.8753 24.4008 20.8753ZM24.4008 25.4294C24.8415 25.4294 25.2822 24.9887 25.2822 23.8134C25.2822 22.6382 24.8415 22.1975 24.4008 22.1975C23.9601 22.1975 23.5193 22.6382 23.5193 23.8134C23.5193 24.9887 23.8132 25.4294 24.4008 25.4294ZM24.4008 20.4346C22.6379 20.4346 21.6096 21.7567 21.6096 23.6665C21.6096 25.5763 22.7848 26.8985 24.4008 26.8985C26.1637 26.8985 27.192 25.5763 27.192 23.6665C27.192 21.7567 26.0168 20.4346 24.4008 20.4346ZM24.4008 24.9887C23.9601 24.9887 23.9601 24.2541 23.9601 23.8134C23.9601 23.2258 24.107 22.6382 24.4008 22.6382C24.8415 22.6382 24.8415 23.3727 24.8415 23.8134C24.8415 24.2541 24.8415 24.9887 24.4008 24.9887Z" fill="#174AFF"/>
<path d="M31.1571 26.7521V22.3449H30.1287V20.7289H33.0669V26.7521H31.1571Z" fill="#174AFF"/>
<path d="M32.9206 21.0225V26.605H31.3046V22.1978H30.2762V21.0225H32.9206ZM33.2144 20.5818H32.9206H30.2762H29.9824V20.8756V22.0509V22.3447H30.2762H31.0108V26.3111V26.605H31.3046H32.9206H33.2144V26.3111V20.7287V20.5818Z" fill="#174AFF"/>
<path d="M23.8137 36.3006V31.8934H22.7854V30.4243H25.8704V36.3006H23.8137Z" fill="#174AFF"/>
<path d="M25.7235 30.5713V36.1538H24.1075V31.7466H23.0792V30.5713H25.7235ZM26.0173 30.1306H25.7235H23.0792H22.7853V30.4244V31.5997V31.8935H23.0792H23.8137V35.86V36.1538H24.1075H25.7235H26.0173V35.86V30.2775V30.1306Z" fill="#174AFF"/>
<path d="M31.5996 36.4477C29.9836 36.4477 28.9553 35.2724 28.9553 33.3626C28.9553 31.4528 29.9836 30.2776 31.5996 30.2776C33.2156 30.2776 34.2439 31.4528 34.2439 33.3626C34.2439 35.2724 33.2156 36.4477 31.5996 36.4477ZM31.5996 31.8936C31.1589 31.8936 30.865 32.3343 30.865 33.3626C30.865 34.2441 31.1589 34.8317 31.5996 34.8317C32.1872 34.8317 32.3341 34.0972 32.3341 33.3626C32.3341 32.6281 32.1872 31.8936 31.5996 31.8936Z" fill="#174AFF"/>
<path d="M31.6 30.4244C33.0691 30.4244 34.0974 31.4528 34.0974 33.3626C34.0974 35.2723 33.0691 36.3007 31.6 36.3007C30.1309 36.3007 29.1026 35.2723 29.1026 33.3626C29.1026 31.4528 30.1309 30.4244 31.6 30.4244ZM31.6 34.9785C32.0407 34.9785 32.4814 34.5378 32.4814 33.3626C32.4814 32.1873 32.0407 31.7466 31.6 31.7466C31.1593 31.7466 30.7186 32.1873 30.7186 33.3626C30.7186 34.5378 31.0124 34.9785 31.6 34.9785ZM31.6 30.1306C29.8371 30.1306 28.8088 31.4528 28.8088 33.3626C28.8088 35.2723 29.984 36.5945 31.6 36.5945C33.3629 36.5945 34.3912 35.2723 34.3912 33.3626C34.3912 31.4528 33.216 30.1306 31.6 30.1306ZM31.6 34.5378C31.1593 34.5378 31.1593 33.8033 31.1593 33.3626C31.1593 32.7749 31.3062 32.1873 31.6 32.1873C32.0407 32.1873 32.0407 32.9218 32.0407 33.3626C32.0407 33.8033 32.0407 34.5378 31.6 34.5378Z" fill="#174AFF"/>
</g>
<defs>
<clipPath id="clip0_1_121">
<rect width="56" height="56" rx="28" fill="white"/>
</clipPath>
</defs>
</svg>
