<svg width="140" height="48" viewBox="0 0 140 48" fill="none" xmlns="http://www.w3.org/2000/svg">
<path d="M63.4711 22.2874H76.7432V18.1131H63.4711V10.0856H78.2774V5.76855H58.1907V34.8817H78.3131V30.529H63.4711V22.2874Z" fill="white"/>
<path d="M109.995 5.76843H103.93L96.1519 15.9366L88.6596 5.76843H84.3426H81.8094L92.7982 20.2537L81.631 34.8816H87.8033L95.7952 24.2139L103.894 34.8816H108.675H110.102L99.1489 20.0039L109.995 5.76843Z" fill="white"/>
<path d="M129.047 20.0039L139.929 5.76843H133.863L126.05 15.9366L118.558 5.76843H114.276H111.708L122.696 20.2537L111.529 34.8816H117.701L125.729 24.2139L133.792 34.8816H138.573H140L129.047 20.0039Z" fill="white"/>
<path d="M7.31397 15.5801V32.3844H0V19.8257L7.31397 15.5801Z" fill="white"/>
<path d="M7.3139 32.3843L21.8705 40.7686L18.1957 47.1192L7.3139 40.8399V32.3843Z" fill="white"/>
<path d="M21.8705 40.7686L36.4271 32.3843L40.0663 38.7349L29.1845 45.0142L21.8705 40.7686Z" fill="white"/>
<path d="M36.4271 32.3844V15.5801H43.7411V28.1387L36.4271 32.3844Z" fill="white"/>
<path d="M36.4271 15.5801L21.8705 7.19576L25.5097 0.845093L36.4271 7.1244V15.5801Z" fill="white"/>
<path d="M21.8705 7.19586L7.31395 15.5802L3.6748 9.2295L14.5566 2.9502L21.8705 7.19586Z" fill="white"/>
<path d="M59.1184 47.1551H58.1907V41.7677H59.1184L61.9369 46.0134H61.6515V41.7677H62.5791V47.1551H61.6515L58.8329 42.9094H59.1184V47.1551Z" fill="white"/>
<path d="M72.319 47.1551H68.9653V41.7677H72.319V42.624H69.5718L69.8929 42.3385V44.0154H72.0692V44.836H69.9286V46.5842L69.6075 46.2988H72.3547V47.1551H72.319Z" fill="white"/>
<path d="M78.0633 42.624V41.7677H82.1662V42.624H78.0633ZM80.5607 42.1958V47.1551H79.5974V42.1958H80.5607Z" fill="white"/>
<path d="M89.2661 47.1551L87.6606 41.7677H88.6596L89.5158 44.6219C89.5515 44.7646 89.5872 44.943 89.6585 45.0857C89.6942 45.2641 89.7299 45.4425 89.7656 45.6923C89.8013 45.4425 89.8369 45.2641 89.9083 45.0857C89.944 44.943 89.9796 44.7646 90.051 44.6219L90.9073 41.7677H91.9419L92.7625 44.6219C92.7982 44.7646 92.8339 44.943 92.9052 45.0857C92.9409 45.2641 92.9766 45.4425 93.0479 45.6923C93.0836 45.4425 93.155 45.2285 93.1907 45.0857C93.2263 44.943 93.262 44.7646 93.2977 44.6576L94.154 41.8034H95.1173L93.4761 47.1907H92.5485L91.4068 43.2662L90.2294 47.1907H89.2661V47.1551Z" fill="white"/>
<path d="M105.678 44.4433C105.678 44.9785 105.571 45.478 105.357 45.9061C105.143 46.3342 104.822 46.6553 104.429 46.9051C104.037 47.1548 103.573 47.2619 103.073 47.2619C102.574 47.2619 102.11 47.1548 101.718 46.9051C101.325 46.6553 101.004 46.3342 100.79 45.9061C100.576 45.478 100.469 45.0142 100.469 44.4433C100.469 43.9081 100.576 43.4086 100.79 42.9805C101.004 42.5524 101.325 42.2313 101.718 41.9815C102.11 41.7318 102.574 41.6248 103.073 41.6248C103.609 41.6248 104.037 41.7318 104.429 41.9815C104.822 42.2313 105.143 42.5524 105.357 42.9805C105.571 43.4086 105.678 43.9081 105.678 44.4433ZM104.679 44.4433C104.679 44.0508 104.608 43.7298 104.465 43.4443C104.322 43.1589 104.144 42.9448 103.894 42.8021C103.644 42.6594 103.359 42.5524 103.038 42.5524C102.717 42.5524 102.431 42.6237 102.182 42.8021C101.932 42.9448 101.753 43.1589 101.611 43.4443C101.468 43.7298 101.397 44.0508 101.397 44.4433C101.397 44.8358 101.468 45.1569 101.611 45.4423C101.753 45.7277 101.932 45.9418 102.182 46.0845C102.431 46.2272 102.717 46.2986 103.038 46.2986C103.359 46.2986 103.644 46.2272 103.894 46.0488C104.144 45.9061 104.322 45.692 104.465 45.4066C104.608 45.1569 104.679 44.8358 104.679 44.4433Z" fill="white"/>
<path d="M112.706 47.1551H111.743V41.7677H113.812C114.419 41.7677 114.883 41.9104 115.24 42.1958C115.596 42.4813 115.739 42.9094 115.739 43.4446C115.739 43.8013 115.668 44.1224 115.489 44.3722C115.311 44.6219 115.097 44.836 114.776 44.943L115.81 47.1551H114.776L113.848 45.1214H112.671V47.1551H112.706ZM112.706 42.5883V44.3008H113.812C114.098 44.3008 114.348 44.2295 114.526 44.0868C114.704 43.9441 114.776 43.73 114.776 43.4446C114.776 43.1591 114.704 42.9807 114.526 42.8024C114.348 42.6596 114.134 42.5883 113.812 42.5883H112.706Z" fill="white"/>
<path d="M122.803 41.7676V47.155H121.84V41.7676H122.803ZM126.121 41.7676L122.589 46.2987V44.8716L125.015 41.7319H126.121V41.7676ZM123.66 44.8002L124.266 43.9796L126.121 47.155H125.015L123.66 44.8002Z" fill="white"/>
</svg>
